<?xml version="1.0" encoding="iso-8859-1"?>
<!-- Generator: Adobe Illustrator 18.0.0, SVG Export Plug-In . SVG Version: 6.00 Build 0)  -->
<!DOCTYPE svg PUBLIC "-//W3C//DTD SVG 1.1//EN" "http://www.w3.org/Graphics/SVG/1.1/DTD/svg11.dtd">
<svg version="1.1" id="Capa_1" xmlns="http://www.w3.org/2000/svg" xmlns:xlink="http://www.w3.org/1999/xlink" x="0px" y="0px"
	 viewBox="0 0 342.999 342.999" style="enable-background:new 0 0 342.999 342.999;" xml:space="preserve">
<g>
	<path d="M154.074,0c2.624,35.486,2.624,70.758,0,106.241h37.775c-2.623-35.484-2.623-70.755,0-106.241H154.074z"/>
	<path d="M154.074,116.879c2.624,35.484,2.624,70.758,0,106.242h37.775c-2.623-35.484-2.623-70.758,0-106.242H154.074z"/>
	<path d="M154.074,233.759c2.624,35.483,2.624,70.756,0,106.241h37.775c-2.623-35.485-2.623-70.757,0-106.241H154.074z"/>
	<path d="M81.714,159.667c2.625,29.155,2.625,58.14,0,87.296h37.775c-2.623-29.156-2.623-58.139,0-87.296H81.714z"/>
	<path d="M81.714,255.703c2.625,29.156,2.625,58.139,0,87.296h37.775c-2.623-29.157-2.623-58.139,0-87.296H81.714z"/>
	<path d="M123.528,80.791c-22.254-7.593-43.805-3.461-43.805-3.461s14.53,16.443,36.783,24.037
		c22.255,7.594,29.584-1.391,29.584-1.391S145.783,88.385,123.528,80.791z"/>
	<path d="M120.602,58.996c0,0,2.807,12.433,12.019,22.517c9.214,10.083,15.456,7.554,15.456,7.554s3.08-5.988-6.132-16.071
		C132.733,62.91,120.602,58.996,120.602,58.996z"/>
	<path d="M124.144,106.355c-13.454,2.35-23.276,10.473-23.276,10.473s11.993,4.316,25.449,1.967
		c13.454-2.349,14.677-8.972,14.677-8.972S137.599,104.007,124.144,106.355z"/>
	<path d="M219.455,199.587c-22.293,7.482-22.659,19.071-22.659,19.071s7.284,9.021,29.577,1.539
		c22.291-7.482,36.903-23.853,36.903-23.853S241.746,192.105,219.455,199.587z"/>
	<path d="M201.843,228.531c0,0,1.19,6.629,14.632,9.045c13.443,2.417,25.458-1.84,25.458-1.84s-9.78-8.173-23.223-10.59
		C205.267,222.731,201.843,228.531,201.843,228.531z"/>
	<path d="M210.357,200.262c9.262-10.037,12.131-22.456,12.131-22.456s-12.148,3.854-21.413,13.893
		c-9.262,10.037-6.212,16.042-6.212,16.042S201.094,210.299,210.357,200.262z"/>
</g>
<g>
</g>
<g>
</g>
<g>
</g>
<g>
</g>
<g>
</g>
<g>
</g>
<g>
</g>
<g>
</g>
<g>
</g>
<g>
</g>
<g>
</g>
<g>
</g>
<g>
</g>
<g>
</g>
<g>
</g>
</svg>
