<?xml version="1.0" encoding="iso-8859-1"?>
<!-- Generator: Adobe Illustrator 18.0.0, SVG Export Plug-In . SVG Version: 6.00 Build 0)  -->
<!DOCTYPE svg PUBLIC "-//W3C//DTD SVG 1.1//EN" "http://www.w3.org/Graphics/SVG/1.1/DTD/svg11.dtd">
<svg version="1.1" id="Capa_1" xmlns="http://www.w3.org/2000/svg" xmlns:xlink="http://www.w3.org/1999/xlink" x="0px" y="0px"
	 viewBox="0 0 350 350" style="enable-background:new 0 0 350 350;" xml:space="preserve">
<g>
	<path d="M175,0C78.504,0,0,78.504,0,175s78.504,175,175,175s175-78.504,175-175S271.496,0,175,0z M137.78,252.797
		c42.949-53.426,73.572-22.072,73.572-22.072s-3.594,6.896-34.66,18.551c24.326,3.135,39.117-12.613,39.117-12.613
		C232.529,264.184,196.812,301.074,137.78,252.797z M175.509,174.729c-41.748,0-75.713,33.965-75.713,75.713
		c0,35.602,24.707,65.518,57.87,73.563v0.365C82.885,315.744,24.624,252.055,24.624,175C24.624,92.082,92.083,24.623,175,24.623
		c5.05,0,6.855,0.164,6.855,0.164c38.332,2.963,68.231,35.615,68.231,74.771C250.087,174.375,175.509,174.729,175.509,174.729z"/>
	<path d="M136.796,116.779c0,0,11.861-18.055,36.365-19.15c-28.6,16.822-30.955,24.234-30.955,24.234s35.559,25.621,68.683-34.393
		C144.435,50.063,115.592,92.545,136.796,116.779z"/>
</g>
<g>
</g>
<g>
</g>
<g>
</g>
<g>
</g>
<g>
</g>
<g>
</g>
<g>
</g>
<g>
</g>
<g>
</g>
<g>
</g>
<g>
</g>
<g>
</g>
<g>
</g>
<g>
</g>
<g>
</g>
</svg>
